<?xml version="1.0" standalone="no"?><!-- Generator: Gravit.io --><svg xmlns="http://www.w3.org/2000/svg" xmlns:xlink="http://www.w3.org/1999/xlink" style="isolation:isolate" viewBox="0 0 320 512" width="320" height="512"><path d=" M 143 256.3 L 7 120.3 C -2.4 110.9 -2.4 95.7 7 86.4 L 29.6 63.8 C 39 54.4 54.2 54.4 63.5 63.8 L 159.9 160.2 L 256.3 63.8 C 265.7 54.4 280.9 54.4 290.2 63.8 L 313 86.3 C 322.4 95.7 322.4 110.9 313 120.2 L 177 256.2 C 167.6 265.7 152.4 265.7 143 256.3 Z  M 177 448.3 L 313 312.3 C 322.4 302.9 322.4 287.7 313 278.4 L 290.4 255.8 C 281 246.4 265.8 246.4 256.5 255.8 L 160 352.1 L 63.6 255.7 C 54.2 246.3 39 246.3 29.7 255.7 L 7 278.3 C -2.4 287.7 -2.4 302.9 7 312.2 L 143 448.2 C 152.4 457.7 167.6 457.7 177 448.3 Z " fill="rgb(255,255,255)" vector-effect="non-scaling-stroke" stroke-width="1" stroke="rgb(255,255,255)" stroke-linejoin="miter" stroke-linecap="butt" stroke-miterlimit="4"/></svg>