<?xml version="1.0" standalone="no"?><!-- Generator: Gravit.io --><svg xmlns="http://www.w3.org/2000/svg" xmlns:xlink="http://www.w3.org/1999/xlink" style="isolation:isolate" viewBox="0 0 200 200" width="200" height="200"><g><path d="M 100 0 L 100 0 C 155.192 0 200 44.808 200 100 L 200 100 C 200 155.192 155.192 200 100 200 L 100 200 C 44.808 200 0 155.192 0 100 L 0 100 C 0 44.808 44.808 0 100 0 Z" style="stroke:none;fill:#3B5998;stroke-miterlimit:10;"/><g><line x1="98.568" y1="200" x2="127.39" y2="196"/><path d=" M 127.39 196 L 127.39 196 L 127.39 128.385 L 151.428 128.385 L 155.027 100.475 L 127.39 100.475 L 127.39 82.656 C 127.39 74.576 129.634 69.069 141.221 69.069 L 156 69.063 L 156 44.1 C 153.444 43.76 144.671 43 134.464 43 C 113.156 43 98.568 56.007 98.568 79.892 L 98.568 100.475 L 74.469 100.475 L 74.469 128.385 L 98.568 128.385 L 98.568 200 L 98.568 200 C 107.637 200.552 120.552 198.76 127.39 196 Z " fill="rgb(255,255,255)"/></g></g></svg>