<?xml version="1.0" encoding="utf-8"?>
<!-- Designed by Vexels.com - 2016 All Rights Reserved - https://vexels.com/terms-and-conditions/  -->

<svg version="1.1" id="Capa_1" xmlns="http://www.w3.org/2000/svg" xmlns:xlink="http://www.w3.org/1999/xlink" x="0px" y="0px"
	 width="1200px" height="1200px" viewBox="0 0 1200 1200" enable-background="new 0 0 1200 1200" xml:space="preserve">
<g id="VEXELS">
</g>
<g>
	<g id="BACKGROUND">
		<g>
			<path fill="#25527B" d="M599.98,50C296.238,50,50.024,296.257,50.024,599.999S296.242,1150,599.98,1150
				c52.279,0,102.855-7.314,150.75-20.965c197.625-56.186,349.924-220.139,389.287-424.311c6.543-33.916,9.959-68.936,9.959-104.721
				C1149.976,296.257,903.72,50,599.98,50z"/>
			<path opacity="0.2" enable-background="new    " d="M1140.021,704.724c-39.357,204.172-191.656,368.125-389.285,424.307
				L520.607,898.904h123.689c0,0,0-164.852,0-298.707h83.73l10.842-105.54h-94.572v-62.071c0-23.316,15.398-28.721,26.289-28.721
				c10.889,0,66.748,0,66.748,0v-101.84L1140.021,704.724z"/>
			<polygon fill="#FFFFFF" points="737.328,301.496 737.328,302.025 736.796,301.496 			"/>
			<path fill="#FFFFFF" d="M644.316,494.662v-62.076c0-23.316,15.402-28.721,26.289-28.721c10.889,0,66.748,0,66.748,0v-101.84
				l-0.533-0.523l-91.402-0.406c-17.307,0-32.377,2.193-45.414,6.09c-63.861,19.054-79.868,78.607-79.868,119.188v68.289h-59.021
				v105.54h59.021v298.22c0,0.318,0,0.482,0,0.482h79.868h44.322c0,0,0-164.848,0-298.702h83.725l10.848-105.54H644.316z"/>
			<path opacity="0.1" enable-background="new    " d="M738.869,494.662l-10.842,105.54h-83.73c0,133.854,0,298.702,0,298.702
				H599.98V307.185c13.037-3.896,28.111-6.09,45.414-6.09l91.402,0.406l0.531,0.523v101.84c0,0-55.857,0-66.748,0
				s-26.283,5.404-26.283,28.721v62.071h94.572V494.662z"/>
		</g>
	</g>
</g>
</svg>
