<?xml version="1.0" standalone="no"?><!-- Generator: Gravit.io --><svg xmlns="http://www.w3.org/2000/svg" xmlns:xlink="http://www.w3.org/1999/xlink" style="isolation:isolate" viewBox="0 0 122.673 130.183" width="122.673" height="130.183"><defs><filter id="xJKjcSwvEUiRXcVtyHl9xtpxPhncxEyT" x="73.502" y="81.011" width="49.172" height="49.172" filterUnits="userSpaceOnUse"><feGaussianBlur xmlns="http://www.w3.org/2000/svg" in="SourceGraphic" stdDeviation="0.42936090628390283"/><feOffset xmlns="http://www.w3.org/2000/svg" dx="0" dy="0" result="pf_100_offsetBlur"/><feFlood xmlns="http://www.w3.org/2000/svg" flood-color="#000000" flood-opacity="0.65"/><feComposite xmlns="http://www.w3.org/2000/svg" in2="pf_100_offsetBlur" operator="in" result="pf_100_dropShadow"/><feBlend xmlns="http://www.w3.org/2000/svg" in="SourceGraphic" in2="pf_100_dropShadow" mode="normal"/></filter></defs><g filter="url(#xJKjcSwvEUiRXcVtyHl9xtpxPhncxEyT)"><path d=" M 98.291 84.803 L 118.894 105.896 C 119.279 106.291 119.264 106.916 118.86 107.292 L 98.324 126.406 C 97.92 126.782 97.272 126.775 96.876 126.389 L 77.308 107.309 C 76.913 106.924 76.898 106.283 77.274 105.88 L 96.911 84.819 C 97.287 84.415 97.906 84.408 98.291 84.803 Z " fill="rgb(255,255,255)" style=":undefined;" vector-effect="non-scaling-stroke" stroke-width="1" stroke="rgb(255,255,255)" stroke-linejoin="miter" stroke-linecap="square" stroke-miterlimit="3"/></g><defs><filter id="VMDqQpGhYAXgSc4lb9gfF1ApMyRRNkdi" x="0" y="0" width="101.167" height="129.18" filterUnits="userSpaceOnUse"><feGaussianBlur xmlns="http://www.w3.org/2000/svg" in="SourceGraphic" stdDeviation="0.42936090628390283"/><feOffset xmlns="http://www.w3.org/2000/svg" dx="0" dy="0" result="pf_100_offsetBlur"/><feFlood xmlns="http://www.w3.org/2000/svg" flood-color="#000000" flood-opacity="0.65"/><feComposite xmlns="http://www.w3.org/2000/svg" in2="pf_100_offsetBlur" operator="in" result="pf_100_dropShadow"/><feBlend xmlns="http://www.w3.org/2000/svg" in="SourceGraphic" in2="pf_100_dropShadow" mode="normal"/></filter></defs><g filter="url(#VMDqQpGhYAXgSc4lb9gfF1ApMyRRNkdi)"><path d=" M 32.397 64.369 L 3.788 34.806 C 3.404 34.409 3.404 33.765 3.788 33.369 L 32.397 3.806 C 32.781 3.409 33.417 3.397 33.816 3.778 L 97.369 64.397 C 97.768 64.778 97.766 65.394 97.363 65.772 L 33.822 125.403 C 33.419 125.781 32.776 125.771 32.385 125.38 L 3.8 96.794 C 3.409 96.404 3.404 95.765 3.788 95.369 L 32.397 65.806 C 32.781 65.409 32.781 64.765 32.397 64.369 Z " fill="rgb(255,255,255)" vector-effect="non-scaling-stroke" stroke-width="1" stroke="rgb(255,255,255)" stroke-linejoin="miter" stroke-linecap="square" stroke-miterlimit="3"/></g></svg>