<?xml version="1.0" standalone="no"?><!-- Generator: Gravit.io --><svg xmlns="http://www.w3.org/2000/svg" xmlns:xlink="http://www.w3.org/1999/xlink" style="isolation:isolate" viewBox="0 0 470 111.906" width="470" height="111.906"><path d=" M 215.968 89.764 L 215.968 89.764 L 215.968 76.756 L 215.968 76.756 Q 219.366 79.723 223.351 81.207 L 223.351 81.207 L 223.351 81.207 Q 227.335 82.691 231.398 82.691 L 231.398 82.691 L 231.398 82.691 Q 233.78 82.691 235.558 82.244 L 235.558 82.244 L 235.558 82.244 Q 237.335 81.796 238.527 81.004 L 238.527 81.004 L 238.527 81.004 Q 239.718 80.211 240.304 79.134 L 240.304 79.134 L 240.304 79.134 Q 240.89 78.057 240.89 76.797 L 240.89 76.797 L 240.89 76.797 Q 240.89 75.089 239.952 73.748 L 239.952 73.748 L 239.952 73.748 Q 239.015 72.406 237.394 71.268 L 237.394 71.268 L 237.394 71.268 Q 235.773 70.13 233.546 69.073 L 233.546 69.073 L 233.546 69.073 Q 231.32 68.016 228.741 66.918 L 228.741 66.918 L 228.741 66.918 Q 222.179 64.073 218.956 59.967 L 218.956 59.967 L 218.956 59.967 Q 215.734 55.862 215.734 50.049 L 215.734 50.049 L 215.734 50.049 Q 215.734 45.496 217.491 42.223 L 217.491 42.223 L 217.491 42.223 Q 219.249 38.951 222.277 36.837 L 222.277 36.837 L 222.277 36.837 Q 225.304 34.723 229.288 33.728 L 229.288 33.728 L 229.288 33.728 Q 233.273 32.732 237.726 32.732 L 237.726 32.732 L 237.726 32.732 Q 242.101 32.732 245.48 33.28 L 245.48 33.28 L 245.48 33.28 Q 248.859 33.829 251.71 34.967 L 251.71 34.967 L 251.71 47.122 L 251.71 47.122 Q 250.304 46.106 248.644 45.333 L 248.644 45.333 L 248.644 45.333 Q 246.984 44.561 245.226 44.053 L 245.226 44.053 L 245.226 44.053 Q 243.468 43.545 241.73 43.301 L 241.73 43.301 L 241.73 43.301 Q 239.991 43.057 238.429 43.057 L 238.429 43.057 L 238.429 43.057 Q 236.28 43.057 234.523 43.484 L 234.523 43.484 L 234.523 43.484 Q 232.765 43.91 231.554 44.683 L 231.554 44.683 L 231.554 44.683 Q 230.343 45.455 229.679 46.532 L 229.679 46.532 L 229.679 46.532 Q 229.015 47.61 229.015 48.951 L 229.015 48.951 L 229.015 48.951 Q 229.015 50.414 229.757 51.573 L 229.757 51.573 L 229.757 51.573 Q 230.499 52.732 231.866 53.768 L 231.866 53.768 L 231.866 53.768 Q 233.234 54.805 235.187 55.801 L 235.187 55.801 L 235.187 55.801 Q 237.14 56.797 239.601 57.853 L 239.601 57.853 L 239.601 57.853 Q 242.96 59.317 245.636 60.963 L 245.636 60.963 L 245.636 60.963 Q 248.312 62.61 250.226 64.683 L 250.226 64.683 L 250.226 64.683 Q 252.14 66.756 253.155 69.418 L 253.155 69.418 L 253.155 69.418 Q 254.171 72.081 254.171 75.618 L 254.171 75.618 L 254.171 75.618 Q 254.171 80.496 252.394 83.809 L 252.394 83.809 L 252.394 83.809 Q 250.616 87.122 247.57 89.175 L 247.57 89.175 L 247.57 89.175 Q 244.523 91.227 240.48 92.122 L 240.48 92.122 L 240.48 92.122 Q 236.437 93.016 231.945 93.016 L 231.945 93.016 L 231.945 93.016 Q 227.335 93.016 223.175 92.203 L 223.175 92.203 L 223.175 92.203 Q 219.015 91.39 215.968 89.764 Z  M 302.726 33.707 L 302.726 44.398 L 286.749 44.398 L 286.749 92 L 274.093 92 L 274.093 44.398 L 258.195 44.398 L 258.195 33.707 L 302.726 33.707 L 302.726 33.707 Z  M 339.601 33.707 L 359.523 92 L 345.773 92 L 341.788 79.032 L 321.866 79.032 L 317.921 92 L 304.249 92 L 324.64 33.707 L 339.601 33.707 L 339.601 33.707 Z  M 324.562 68.951 L 338.898 68.951 L 332.882 49.358 L 332.882 49.358 Q 332.218 47.162 331.945 44.114 L 331.945 44.114 L 331.632 44.114 L 331.632 44.114 Q 331.437 46.675 330.655 49.195 L 330.655 49.195 L 324.562 68.951 L 324.562 68.951 Z  M 402.921 74.764 L 413.507 92 L 399.015 92 L 390.304 77 L 390.304 77 Q 389.327 75.292 388.429 73.951 L 388.429 73.951 L 388.429 73.951 Q 387.53 72.61 386.612 71.654 L 386.612 71.654 L 386.612 71.654 Q 385.695 70.699 384.698 70.191 L 384.698 70.191 L 384.698 70.191 Q 383.702 69.683 382.53 69.683 L 382.53 69.683 L 379.132 69.683 L 379.132 92 L 366.515 92 L 366.515 33.707 L 386.515 33.707 L 386.515 33.707 Q 406.905 33.707 406.905 49.561 L 406.905 49.561 L 406.905 49.561 Q 406.905 52.61 406.007 55.191 L 406.007 55.191 L 406.007 55.191 Q 405.109 57.772 403.468 59.845 L 403.468 59.845 L 403.468 59.845 Q 401.827 61.919 399.503 63.423 L 399.503 63.423 L 399.503 63.423 Q 397.179 64.927 394.327 65.78 L 394.327 65.78 L 394.327 65.943 L 394.327 65.943 Q 395.577 66.349 396.749 67.264 L 396.749 67.264 L 396.749 67.264 Q 397.921 68.179 399.015 69.398 L 399.015 69.398 L 399.015 69.398 Q 400.109 70.618 401.105 72.02 L 401.105 72.02 L 401.105 72.02 Q 402.101 73.423 402.921 74.764 L 402.921 74.764 L 402.921 74.764 Z  M 384.835 43.545 L 379.132 43.545 L 379.132 59.764 L 384.601 59.764 L 384.601 59.764 Q 388.663 59.764 391.124 57.325 L 391.124 57.325 L 391.124 57.325 Q 393.624 54.845 393.624 51.187 L 393.624 51.187 L 393.624 51.187 Q 393.624 43.545 384.835 43.545 L 384.835 43.545 L 384.835 43.545 Z  M 444.093 61.512 L 465.304 92 L 449.366 92 L 433.038 66.675 L 433.038 66.675 Q 432.57 65.943 431.554 63.463 L 431.554 63.463 L 431.359 63.463 L 431.359 92 L 418.741 92 L 418.741 33.707 L 431.359 33.707 L 431.359 61.268 L 431.554 61.268 L 431.554 61.268 Q 432.023 60.13 433.116 58.016 L 433.116 58.016 L 448.585 33.707 L 463.624 33.707 L 444.093 61.512 L 444.093 61.512 Z  M 139.874 33.707 L 139.874 39.886 L 123.702 39.886 L 123.702 92 L 117.14 92 L 117.14 39.886 L 101.007 39.886 L 101.007 33.707 L 139.874 33.707 L 139.874 33.707 Z  M 143.195 33.707 L 160.695 33.707 L 160.695 39.561 L 155.226 39.561 L 155.226 86.146 L 160.695 86.146 L 160.695 92 L 143.195 92 L 143.195 86.146 L 148.663 86.146 L 148.663 39.561 L 143.195 39.561 L 143.195 33.707 L 143.195 33.707 Z  M 208.077 82.935 L 208.077 89.561 L 208.077 89.561 Q 201.866 92.975 192.609 92.975 L 192.609 92.975 L 192.609 92.975 Q 180.655 92.975 173.468 84.967 L 173.468 84.967 L 173.468 84.967 Q 166.28 76.959 166.28 63.951 L 166.28 63.951 L 166.28 63.951 Q 166.28 49.967 174.366 41.349 L 174.366 41.349 L 174.366 41.349 Q 182.452 32.732 194.874 32.732 L 194.874 32.732 L 194.874 32.732 Q 202.843 32.732 208.077 35.13 L 208.077 35.13 L 208.077 42.406 L 208.077 42.406 Q 202.062 38.91 194.796 38.91 L 194.796 38.91 L 194.796 38.91 Q 185.148 38.91 179.152 45.618 L 179.152 45.618 L 179.152 45.618 Q 173.155 52.325 173.155 63.545 L 173.155 63.545 L 173.155 63.545 Q 173.155 74.195 178.761 80.516 L 178.761 80.516 L 178.761 80.516 Q 184.366 86.837 193.468 86.837 L 193.468 86.837 L 193.468 86.837 Q 201.905 86.837 208.077 82.935 L 208.077 82.935 L 208.077 82.935 Z " fill-rule="evenodd" fill="rgb(0,0,0)"/><g><g filter="url(#DdXUfmdS2aFa9eJ08SivVLWJxuKyL7Wp)"><path d=" M 80.724 75.333 L 97.075 92.072 C 97.38 92.386 97.368 92.882 97.048 93.18 L 80.751 108.349 C 80.43 108.647 79.916 108.642 79.601 108.335 L 64.073 93.194 C 63.759 92.888 63.747 92.38 64.046 92.06 L 79.629 75.346 C 79.928 75.025 80.419 75.02 80.724 75.333 Z " fill="rgb(0,0,0)"/></g><defs><filter id="DdXUfmdS2aFa9eJ08SivVLWJxuKyL7Wp" x="59.829" y="71.102" width="41.467" height="41.467" filterUnits="userSpaceOnUse"><feGaussianBlur xmlns="http://www.w3.org/2000/svg" in="SourceGraphic" stdDeviation="0.42936090628390283"/><feOffset xmlns="http://www.w3.org/2000/svg" dx="0" dy="0" result="pf_100_offsetBlur"/><feFlood xmlns="http://www.w3.org/2000/svg" flood-color="#000000" flood-opacity="0.65"/><feComposite xmlns="http://www.w3.org/2000/svg" in2="pf_100_offsetBlur" operator="in" result="pf_100_dropShadow"/><feBlend xmlns="http://www.w3.org/2000/svg" in="SourceGraphic" in2="pf_100_dropShadow" mode="normal"/></filter></defs><g filter="url(#cuda8iiQmmCNQMCUNz5fhlxUjJky8dmC)"><path d=" M 28.432 59.117 L 5.729 35.657 C 5.424 35.342 5.424 34.831 5.729 34.516 L 28.432 11.056 C 28.737 10.741 29.242 10.731 29.558 11.033 L 79.993 59.14 C 80.309 59.442 80.308 59.931 79.988 60.231 L 29.563 107.553 C 29.243 107.853 28.733 107.845 28.423 107.535 L 5.738 84.849 C 5.428 84.54 5.424 84.033 5.729 83.718 L 28.432 60.258 C 28.737 59.943 28.737 59.432 28.432 59.117 Z " fill="rgb(0,0,0)"/></g><defs><filter id="cuda8iiQmmCNQMCUNz5fhlxUjJky8dmC" x="1.5" y="6.813" width="82.729" height="104.96" filterUnits="userSpaceOnUse"><feGaussianBlur xmlns="http://www.w3.org/2000/svg" in="SourceGraphic" stdDeviation="0.42936090628390283"/><feOffset xmlns="http://www.w3.org/2000/svg" dx="0" dy="0" result="pf_100_offsetBlur"/><feFlood xmlns="http://www.w3.org/2000/svg" flood-color="#000000" flood-opacity="0.65"/><feComposite xmlns="http://www.w3.org/2000/svg" in2="pf_100_offsetBlur" operator="in" result="pf_100_dropShadow"/><feBlend xmlns="http://www.w3.org/2000/svg" in="SourceGraphic" in2="pf_100_dropShadow" mode="normal"/></filter></defs></g></svg>