<?xml version="1.0" standalone="no"?><!-- Generator: Gravit.io --><svg xmlns="http://www.w3.org/2000/svg" xmlns:xlink="http://www.w3.org/1999/xlink" style="isolation:isolate" viewBox="0 0 470 111.906" width="470" height="111.906"><path d=" M 215.968 87.601 L 215.968 87.601 L 215.968 74.593 L 215.968 74.593 Q 219.366 77.561 223.351 79.044 L 223.351 79.044 L 223.351 79.044 Q 227.335 80.528 231.398 80.528 L 231.398 80.528 L 231.398 80.528 Q 233.78 80.528 235.558 80.081 L 235.558 80.081 L 235.558 80.081 Q 237.335 79.634 238.527 78.841 L 238.527 78.841 L 238.527 78.841 Q 239.718 78.049 240.304 76.971 L 240.304 76.971 L 240.304 76.971 Q 240.89 75.894 240.89 74.634 L 240.89 74.634 L 240.89 74.634 Q 240.89 72.927 239.952 71.585 L 239.952 71.585 L 239.952 71.585 Q 239.015 70.244 237.394 69.105 L 237.394 69.105 L 237.394 69.105 Q 235.773 67.967 233.546 66.91 L 233.546 66.91 L 233.546 66.91 Q 231.32 65.853 228.741 64.756 L 228.741 64.756 L 228.741 64.756 Q 222.179 61.91 218.956 57.805 L 218.956 57.805 L 218.956 57.805 Q 215.734 53.699 215.734 47.886 L 215.734 47.886 L 215.734 47.886 Q 215.734 43.333 217.491 40.061 L 217.491 40.061 L 217.491 40.061 Q 219.249 36.789 222.277 34.675 L 222.277 34.675 L 222.277 34.675 Q 225.304 32.561 229.288 31.565 L 229.288 31.565 L 229.288 31.565 Q 233.273 30.569 237.726 30.569 L 237.726 30.569 L 237.726 30.569 Q 242.101 30.569 245.48 31.118 L 245.48 31.118 L 245.48 31.118 Q 248.859 31.667 251.71 32.805 L 251.71 32.805 L 251.71 44.959 L 251.71 44.959 Q 250.304 43.943 248.644 43.171 L 248.644 43.171 L 248.644 43.171 Q 246.984 42.398 245.226 41.89 L 245.226 41.89 L 245.226 41.89 Q 243.468 41.382 241.73 41.138 L 241.73 41.138 L 241.73 41.138 Q 239.991 40.894 238.429 40.894 L 238.429 40.894 L 238.429 40.894 Q 236.28 40.894 234.523 41.321 L 234.523 41.321 L 234.523 41.321 Q 232.765 41.748 231.554 42.52 L 231.554 42.52 L 231.554 42.52 Q 230.343 43.293 229.679 44.37 L 229.679 44.37 L 229.679 44.37 Q 229.015 45.447 229.015 46.788 L 229.015 46.788 L 229.015 46.788 Q 229.015 48.252 229.757 49.41 L 229.757 49.41 L 229.757 49.41 Q 230.499 50.569 231.866 51.606 L 231.866 51.606 L 231.866 51.606 Q 233.234 52.642 235.187 53.638 L 235.187 53.638 L 235.187 53.638 Q 237.14 54.634 239.601 55.691 L 239.601 55.691 L 239.601 55.691 Q 242.96 57.154 245.636 58.801 L 245.636 58.801 L 245.636 58.801 Q 248.312 60.447 250.226 62.52 L 250.226 62.52 L 250.226 62.52 Q 252.14 64.593 253.155 67.256 L 253.155 67.256 L 253.155 67.256 Q 254.171 69.919 254.171 73.455 L 254.171 73.455 L 254.171 73.455 Q 254.171 78.333 252.394 81.646 L 252.394 81.646 L 252.394 81.646 Q 250.616 84.959 247.57 87.012 L 247.57 87.012 L 247.57 87.012 Q 244.523 89.065 240.48 89.959 L 240.48 89.959 L 240.48 89.959 Q 236.437 90.853 231.945 90.853 L 231.945 90.853 L 231.945 90.853 Q 227.335 90.853 223.175 90.04 L 223.175 90.04 L 223.175 90.04 Q 219.015 89.227 215.968 87.601 Z  M 302.726 31.545 L 302.726 42.236 L 286.749 42.236 L 286.749 89.837 L 274.093 89.837 L 274.093 42.236 L 258.195 42.236 L 258.195 31.545 L 302.726 31.545 L 302.726 31.545 Z  M 339.601 31.545 L 359.523 89.837 L 345.773 89.837 L 341.788 76.87 L 321.866 76.87 L 317.921 89.837 L 304.249 89.837 L 324.64 31.545 L 339.601 31.545 L 339.601 31.545 Z  M 324.562 66.788 L 338.898 66.788 L 332.882 47.195 L 332.882 47.195 Q 332.218 45 331.945 41.951 L 331.945 41.951 L 331.632 41.951 L 331.632 41.951 Q 331.437 44.512 330.655 47.032 L 330.655 47.032 L 324.562 66.788 L 324.562 66.788 Z  M 402.921 72.601 L 413.507 89.837 L 399.015 89.837 L 390.304 74.837 L 390.304 74.837 Q 389.327 73.13 388.429 71.788 L 388.429 71.788 L 388.429 71.788 Q 387.53 70.447 386.612 69.492 L 386.612 69.492 L 386.612 69.492 Q 385.695 68.536 384.698 68.028 L 384.698 68.028 L 384.698 68.028 Q 383.702 67.52 382.53 67.52 L 382.53 67.52 L 379.132 67.52 L 379.132 89.837 L 366.515 89.837 L 366.515 31.545 L 386.515 31.545 L 386.515 31.545 Q 406.905 31.545 406.905 47.398 L 406.905 47.398 L 406.905 47.398 Q 406.905 50.447 406.007 53.028 L 406.007 53.028 L 406.007 53.028 Q 405.109 55.61 403.468 57.683 L 403.468 57.683 L 403.468 57.683 Q 401.827 59.756 399.503 61.26 L 399.503 61.26 L 399.503 61.26 Q 397.179 62.764 394.327 63.618 L 394.327 63.618 L 394.327 63.78 L 394.327 63.78 Q 395.577 64.187 396.749 65.101 L 396.749 65.101 L 396.749 65.101 Q 397.921 66.016 399.015 67.236 L 399.015 67.236 L 399.015 67.236 Q 400.109 68.455 401.105 69.858 L 401.105 69.858 L 401.105 69.858 Q 402.101 71.26 402.921 72.601 L 402.921 72.601 L 402.921 72.601 Z  M 384.835 41.382 L 379.132 41.382 L 379.132 57.601 L 384.601 57.601 L 384.601 57.601 Q 388.663 57.601 391.124 55.162 L 391.124 55.162 L 391.124 55.162 Q 393.624 52.683 393.624 49.024 L 393.624 49.024 L 393.624 49.024 Q 393.624 41.382 384.835 41.382 L 384.835 41.382 L 384.835 41.382 Z  M 444.093 59.349 L 465.304 89.837 L 449.366 89.837 L 433.038 64.512 L 433.038 64.512 Q 432.57 63.78 431.554 61.301 L 431.554 61.301 L 431.359 61.301 L 431.359 89.837 L 418.741 89.837 L 418.741 31.545 L 431.359 31.545 L 431.359 59.106 L 431.554 59.106 L 431.554 59.106 Q 432.023 57.967 433.116 55.854 L 433.116 55.854 L 448.585 31.545 L 463.624 31.545 L 444.093 59.349 L 444.093 59.349 Z  M 139.874 31.545 L 139.874 37.723 L 123.702 37.723 L 123.702 89.837 L 117.14 89.837 L 117.14 37.723 L 101.007 37.723 L 101.007 31.545 L 139.874 31.545 L 139.874 31.545 Z  M 143.195 31.545 L 160.695 31.545 L 160.695 37.398 L 155.226 37.398 L 155.226 83.984 L 160.695 83.984 L 160.695 89.837 L 143.195 89.837 L 143.195 83.984 L 148.663 83.984 L 148.663 37.398 L 143.195 37.398 L 143.195 31.545 L 143.195 31.545 Z  M 208.077 80.772 L 208.077 87.398 L 208.077 87.398 Q 201.866 90.813 192.609 90.813 L 192.609 90.813 L 192.609 90.813 Q 180.655 90.813 173.468 82.805 L 173.468 82.805 L 173.468 82.805 Q 166.28 74.797 166.28 61.788 L 166.28 61.788 L 166.28 61.788 Q 166.28 47.805 174.366 39.187 L 174.366 39.187 L 174.366 39.187 Q 182.452 30.569 194.874 30.569 L 194.874 30.569 L 194.874 30.569 Q 202.843 30.569 208.077 32.967 L 208.077 32.967 L 208.077 40.244 L 208.077 40.244 Q 202.062 36.748 194.796 36.748 L 194.796 36.748 L 194.796 36.748 Q 185.148 36.748 179.152 43.455 L 179.152 43.455 L 179.152 43.455 Q 173.155 50.162 173.155 61.382 L 173.155 61.382 L 173.155 61.382 Q 173.155 72.032 178.761 78.353 L 178.761 78.353 L 178.761 78.353 Q 184.366 84.675 193.468 84.675 L 193.468 84.675 L 193.468 84.675 Q 201.905 84.675 208.077 80.772 L 208.077 80.772 L 208.077 80.772 Z " fill-rule="evenodd" fill="rgb(255,255,255)"/><g><g filter="url(#KtVszxmfz2Uc3erihc68vn2LIXdCE8CB)"><path d=" M 80.724 73.171 L 97.075 89.91 C 97.38 90.223 97.368 90.719 97.048 91.018 L 80.751 106.186 C 80.43 106.485 79.916 106.479 79.601 106.173 L 64.073 91.031 C 63.759 90.726 63.747 90.217 64.046 89.897 L 79.629 73.184 C 79.928 72.863 80.419 72.857 80.724 73.171 Z " fill="rgb(255,255,255)"/></g><defs><filter id="KtVszxmfz2Uc3erihc68vn2LIXdCE8CB" x="59.829" y="68.939" width="41.467" height="41.467" filterUnits="userSpaceOnUse"><feGaussianBlur xmlns="http://www.w3.org/2000/svg" in="SourceGraphic" stdDeviation="0.42936090628390283"/><feOffset xmlns="http://www.w3.org/2000/svg" dx="0" dy="0" result="pf_100_offsetBlur"/><feFlood xmlns="http://www.w3.org/2000/svg" flood-color="#000000" flood-opacity="0.65"/><feComposite xmlns="http://www.w3.org/2000/svg" in2="pf_100_offsetBlur" operator="in" result="pf_100_dropShadow"/><feBlend xmlns="http://www.w3.org/2000/svg" in="SourceGraphic" in2="pf_100_dropShadow" mode="normal"/></filter></defs><g filter="url(#BjteMIyz3GT2xL4VTvqrbZZgEi5J4VRJ)"><path d=" M 28.432 56.955 L 5.729 33.494 C 5.424 33.179 5.424 32.668 5.729 32.354 L 28.432 8.893 C 28.737 8.578 29.242 8.569 29.558 8.871 L 79.993 56.977 C 80.309 57.279 80.308 57.768 79.988 58.068 L 29.563 105.39 C 29.243 105.69 28.733 105.682 28.423 105.372 L 5.738 82.687 C 5.428 82.377 5.424 81.87 5.729 81.556 L 28.432 58.095 C 28.737 57.78 28.737 57.269 28.432 56.955 Z " fill="rgb(255,255,255)"/></g><defs><filter id="BjteMIyz3GT2xL4VTvqrbZZgEi5J4VRJ" x="1.5" y="4.65" width="82.729" height="104.96" filterUnits="userSpaceOnUse"><feGaussianBlur xmlns="http://www.w3.org/2000/svg" in="SourceGraphic" stdDeviation="0.42936090628390283"/><feOffset xmlns="http://www.w3.org/2000/svg" dx="0" dy="0" result="pf_100_offsetBlur"/><feFlood xmlns="http://www.w3.org/2000/svg" flood-color="#000000" flood-opacity="0.65"/><feComposite xmlns="http://www.w3.org/2000/svg" in2="pf_100_offsetBlur" operator="in" result="pf_100_dropShadow"/><feBlend xmlns="http://www.w3.org/2000/svg" in="SourceGraphic" in2="pf_100_dropShadow" mode="normal"/></filter></defs></g></svg>