<?xml version="1.0" standalone="no"?><!-- Generator: Gravit.io --><svg xmlns="http://www.w3.org/2000/svg" xmlns:xlink="http://www.w3.org/1999/xlink" style="isolation:isolate" viewBox="0 0 200 200" width="200" height="200"><g><path d="M 100 0 L 100 0 C 155.192 0 200 44.808 200 100 L 200 100 C 200 155.192 155.192 200 100 200 L 100 200 C 44.808 200 0 155.192 0 100 L 0 100 C 0 44.808 44.808 0 100 0 Z" style="stroke:none;fill:#1DA1F2;stroke-miterlimit:10;"/><path d=" M 79.085 145.815 C 121.633 145.815 144.9 110.566 144.9 80 C 144.9 78.999 144.88 78.002 144.835 77.01 C 149.351 73.744 153.277 69.67 156.373 65.031 C 152.229 66.874 147.768 68.114 143.089 68.673 C 147.865 65.809 151.532 61.279 153.261 55.879 C 148.792 58.528 143.842 60.454 138.573 61.493 C 134.351 56.997 128.342 54.185 121.688 54.185 C 108.913 54.185 98.554 64.544 98.554 77.314 C 98.554 79.129 98.757 80.895 99.154 82.588 C 79.928 81.621 62.881 72.416 51.473 58.42 C 49.486 61.838 48.341 65.809 48.341 70.046 C 48.341 78.072 52.424 85.157 58.635 89.301 C 54.84 89.184 51.274 88.142 48.158 86.408 C 48.155 86.505 48.155 86.6 48.155 86.704 C 48.155 97.906 56.128 107.26 66.713 109.379 C 64.769 109.909 62.724 110.194 60.613 110.194 C 59.125 110.194 57.675 110.047 56.266 109.776 C 59.211 118.968 67.75 125.656 77.875 125.843 C 69.958 132.048 59.984 135.744 49.145 135.744 C 47.28 135.744 45.438 135.638 43.627 135.424 C 53.864 141.986 66.021 145.815 79.086 145.815" fill="rgb(255,255,255)"/></g></svg>